<svg width="18" height="18" viewBox="0 0 18 18" fill="none" xmlns="http://www.w3.org/2000/svg">
<path fill-rule="evenodd" clip-rule="evenodd" d="M0.666016 3.99984C0.666016 3.11578 1.01721 2.26794 1.64233 1.64281C2.26745 1.01769 3.11529 0.666504 3.99935 0.666504H13.9993C14.8834 0.666504 15.7313 1.01769 16.3564 1.64281C16.9815 2.26794 17.3327 3.11578 17.3327 3.99984V13.9998C17.3327 14.8839 16.9815 15.7317 16.3564 16.3569C15.7313 16.982 14.8834 17.3332 13.9993 17.3332H3.99935C3.11529 17.3332 2.26745 16.982 1.64233 16.3569C1.01721 15.7317 0.666016 14.8839 0.666016 13.9998V3.99984ZM3.99935 2.33317C3.55732 2.33317 3.1334 2.50877 2.82084 2.82133C2.50828 3.13389 2.33268 3.55781 2.33268 3.99984V13.9998C2.33268 14.4419 2.50828 14.8658 2.82084 15.1783C3.1334 15.4909 3.55732 15.6665 3.99935 15.6665H8.99935V9.83317H8.16602C7.945 9.83317 7.73304 9.74537 7.57676 9.58909C7.42048 9.43281 7.33268 9.22085 7.33268 8.99984C7.33268 8.77882 7.42048 8.56686 7.57676 8.41058C7.73304 8.2543 7.945 8.1665 8.16602 8.1665H8.99935V6.9165C8.99935 6.14296 9.30664 5.40109 9.85362 4.85411C10.4006 4.30713 11.1425 3.99984 11.916 3.99984H12.416C12.637 3.99984 12.849 4.08764 13.0053 4.24392C13.1616 4.4002 13.2493 4.61216 13.2493 4.83317C13.2493 5.05418 13.1616 5.26615 13.0053 5.42243C12.849 5.57871 12.637 5.6665 12.416 5.6665H11.916C11.7519 5.6665 11.5893 5.69884 11.4377 5.76165C11.286 5.82447 11.1482 5.91655 11.0321 6.03262C10.9161 6.14869 10.824 6.28649 10.7612 6.43815C10.6983 6.58981 10.666 6.75235 10.666 6.9165V8.1665H12.416C12.637 8.1665 12.849 8.2543 13.0053 8.41058C13.1616 8.56686 13.2493 8.77882 13.2493 8.99984C13.2493 9.22085 13.1616 9.43281 13.0053 9.58909C12.849 9.74537 12.637 9.83317 12.416 9.83317H10.666V15.6665H13.9993C14.4414 15.6665 14.8653 15.4909 15.1779 15.1783C15.4904 14.8658 15.666 14.4419 15.666 13.9998V3.99984C15.666 3.55781 15.4904 3.13389 15.1779 2.82133C14.8653 2.50877 14.4414 2.33317 13.9993 2.33317H3.99935Z" fill="#5F2EEA"/>
</svg>
