<svg width="18" height="18" viewBox="0 0 18 18" fill="none" xmlns="http://www.w3.org/2000/svg">
<path fill-rule="evenodd" clip-rule="evenodd" d="M0.666016 3.99984C0.666016 3.11578 1.01721 2.26794 1.64233 1.64281C2.26745 1.01769 3.11529 0.666504 3.99935 0.666504H13.9993C14.8834 0.666504 15.7313 1.01769 16.3564 1.64281C16.9815 2.26794 17.3327 3.11578 17.3327 3.99984V13.9998C17.3327 14.8839 16.9815 15.7317 16.3564 16.3569C15.7313 16.982 14.8834 17.3332 13.9993 17.3332H3.99935C3.11529 17.3332 2.26745 16.982 1.64233 16.3569C1.01721 15.7317 0.666016 14.8839 0.666016 13.9998V3.99984ZM3.99935 2.33317C3.55732 2.33317 3.1334 2.50877 2.82084 2.82133C2.50828 3.13389 2.33268 3.55781 2.33268 3.99984V13.9998C2.33268 14.4419 2.50828 14.8658 2.82084 15.1783C3.1334 15.4909 3.55732 15.6665 3.99935 15.6665H13.9993C14.4414 15.6665 14.8653 15.4909 15.1779 15.1783C15.4904 14.8658 15.666 14.4419 15.666 13.9998V3.99984C15.666 3.55781 15.4904 3.13389 15.1779 2.82133C14.8653 2.50877 14.4414 2.33317 13.9993 2.33317H3.99935ZM8.99935 6.49984C8.33631 6.49984 7.70042 6.76323 7.23158 7.23207C6.76274 7.70091 6.49935 8.3368 6.49935 8.99984C6.49935 9.66288 6.76274 10.2988 7.23158 10.7676C7.70042 11.2364 8.33631 11.4998 8.99935 11.4998C9.66239 11.4998 10.2983 11.2364 10.7671 10.7676C11.236 10.2988 11.4993 9.66288 11.4993 8.99984C11.4993 8.3368 11.236 7.70091 10.7671 7.23207C10.2983 6.76323 9.66239 6.49984 8.99935 6.49984ZM4.83268 8.99984C4.83268 7.89477 5.27167 6.83496 6.05307 6.05356C6.83447 5.27216 7.89428 4.83317 8.99935 4.83317C10.1044 4.83317 11.1642 5.27216 11.9456 6.05356C12.727 6.83496 13.166 7.89477 13.166 8.99984C13.166 10.1049 12.727 11.1647 11.9456 11.9461C11.1642 12.7275 10.1044 13.1665 8.99935 13.1665C7.89428 13.1665 6.83447 12.7275 6.05307 11.9461C5.27167 11.1647 4.83268 10.1049 4.83268 8.99984ZM13.5827 5.6665C13.9142 5.6665 14.2321 5.53481 14.4666 5.30039C14.701 5.06597 14.8327 4.74802 14.8327 4.4165C14.8327 4.08498 14.701 3.76704 14.4666 3.53262C14.2321 3.2982 13.9142 3.1665 13.5827 3.1665C13.2512 3.1665 12.9332 3.2982 12.6988 3.53262C12.4644 3.76704 12.3327 4.08498 12.3327 4.4165C12.3327 4.74802 12.4644 5.06597 12.6988 5.30039C12.9332 5.53481 13.2512 5.6665 13.5827 5.6665Z" fill="#5F2EEA"/>
</svg>
