<svg width="18" height="18" viewBox="0 0 18 18" fill="none" xmlns="http://www.w3.org/2000/svg">
<path fill-rule="evenodd" clip-rule="evenodd" d="M3.99935 0.666504C3.11529 0.666504 2.26745 1.01769 1.64233 1.64281C1.01721 2.26794 0.666016 3.11578 0.666016 3.99984V13.9998C0.666016 14.8839 1.01721 15.7317 1.64233 16.3569C2.26745 16.982 3.11529 17.3332 3.99935 17.3332H13.9993C14.8834 17.3332 15.7313 16.982 16.3564 16.3569C16.9815 15.7317 17.3327 14.8839 17.3327 13.9998V3.99984C17.3327 3.11578 16.9815 2.26794 16.3564 1.64281C15.7313 1.01769 14.8834 0.666504 13.9993 0.666504H3.99935ZM2.33268 3.99984C2.33268 3.55781 2.50828 3.13389 2.82084 2.82133C3.1334 2.50877 3.55732 2.33317 3.99935 2.33317H13.9993C14.4414 2.33317 14.8653 2.50877 15.1779 2.82133C15.4904 3.13389 15.666 3.55781 15.666 3.99984V13.9998C15.666 14.4419 15.4904 14.8658 15.1779 15.1783C14.8653 15.4909 14.4414 15.6665 13.9993 15.6665H3.99935C3.55732 15.6665 3.1334 15.4909 2.82084 15.1783C2.50828 14.8658 2.33268 14.4419 2.33268 13.9998V3.99984ZM6.49935 8.1665C6.49935 7.94549 6.41155 7.73353 6.25527 7.57725C6.09899 7.42097 5.88703 7.33317 5.66602 7.33317C5.445 7.33317 5.23304 7.42097 5.07676 7.57725C4.92048 7.73353 4.83268 7.94549 4.83268 8.1665V13.1665C4.83268 13.3875 4.92048 13.5995 5.07676 13.7558C5.23304 13.912 5.445 13.9998 5.66602 13.9998C5.88703 13.9998 6.09899 13.912 6.25527 13.7558C6.41155 13.5995 6.49935 13.3875 6.49935 13.1665V8.1665ZM6.91602 5.24984C6.91602 5.58136 6.78432 5.8993 6.5499 6.13372C6.31548 6.36814 5.99754 6.49984 5.66602 6.49984C5.3345 6.49984 5.01655 6.36814 4.78213 6.13372C4.54771 5.8993 4.41602 5.58136 4.41602 5.24984C4.41602 4.91832 4.54771 4.60037 4.78213 4.36595C5.01655 4.13153 5.3345 3.99984 5.66602 3.99984C5.99754 3.99984 6.31548 4.13153 6.5499 4.36595C6.78432 4.60037 6.91602 4.91832 6.91602 5.24984ZM8.99935 7.33317C9.28268 7.33317 9.53268 7.47484 9.68268 7.68984C10.1122 7.45576 10.5935 7.33313 11.0827 7.33317C12.8827 7.33317 13.9993 8.93817 13.9993 10.309V13.1665C13.9993 13.3875 13.9116 13.5995 13.7553 13.7558C13.599 13.912 13.387 13.9998 13.166 13.9998C12.945 13.9998 12.733 13.912 12.5768 13.7558C12.4205 13.5995 12.3327 13.3875 12.3327 13.1665V10.3082C12.3327 9.66817 11.7827 8.999 11.0827 8.999C10.646 8.999 10.1635 9.2365 9.83268 9.8015V13.1665C9.83268 13.3875 9.74489 13.5995 9.5886 13.7558C9.43232 13.912 9.22036 13.9998 8.99935 13.9998C8.77834 13.9998 8.56637 13.912 8.41009 13.7558C8.25381 13.5995 8.16602 13.3875 8.16602 13.1665V8.1665C8.16602 7.94549 8.25381 7.73353 8.41009 7.57725C8.56637 7.42097 8.77834 7.33317 8.99935 7.33317Z" fill="#5F2EEA"/>
</svg>
