<svg width="17" height="17" viewBox="0 0 17 17" fill="none" xmlns="http://www.w3.org/2000/svg">
<path d="M16.4166 12.3948V14.7698C16.4175 14.9902 16.3724 15.2085 16.284 15.4105C16.1957 15.6125 16.0662 15.7938 15.9037 15.9429C15.7412 16.0919 15.5494 16.2054 15.3406 16.2761C15.1317 16.3467 14.9104 16.3729 14.6908 16.3531C12.2547 16.0884 9.91467 15.2559 7.85872 13.9227C5.94591 12.7072 4.32419 11.0855 3.10872 9.17267C1.77078 7.10737 0.93816 4.75596 0.678301 2.30892C0.658517 2.09 0.684535 1.86935 0.754697 1.66104C0.824859 1.45272 0.937628 1.2613 1.08582 1.09895C1.23402 0.936606 1.4144 0.806896 1.61547 0.718081C1.81654 0.629266 2.0339 0.583292 2.25372 0.583085H4.62872C5.01292 0.579303 5.38539 0.715355 5.6767 0.965881C5.968 1.21641 6.15828 1.56431 6.21205 1.94475C6.31229 2.7048 6.4982 3.45108 6.76622 4.16933C6.87273 4.45269 6.89578 4.76064 6.83264 5.0567C6.7695 5.35275 6.62282 5.62451 6.40997 5.83975L5.40455 6.84517C6.53153 8.82714 8.17258 10.4682 10.1546 11.5952L11.16 10.5898C11.3752 10.3769 11.647 10.2302 11.943 10.1671C12.2391 10.1039 12.547 10.127 12.8304 10.2335C13.5486 10.5015 14.2949 10.6874 15.055 10.7877C15.4395 10.8419 15.7907 11.0356 16.0418 11.3319C16.2929 11.6282 16.4263 12.0065 16.4166 12.3948Z" stroke="#636363" stroke-linecap="round" stroke-linejoin="round"/>
</svg>
