<svg width="20" height="20" viewBox="0 0 20 20" fill="none" xmlns="http://www.w3.org/2000/svg">
<path d="M19.173 8.01962L14.8689 12.2159L14.5866 12.4912L14.6533 12.8798L15.6702 18.8058L10.3485 16.0078L9.9995 15.8243L9.65047 16.0078L4.32876 18.8058L5.34572 12.8798L5.41241 12.4912L5.13009 12.2159L0.824621 8.01827L0.824573 8.01823L0.824353 8.01771L6.77455 7.15295L7.16484 7.09623L7.33931 6.74253L9.99766 1.35319L9.99777 1.353L9.99825 1.35213L9.99835 1.35195C9.99836 1.35195 9.99836 1.35194 9.99837 1.35193C9.99838 1.35193 9.99838 1.35193 9.99839 1.35192C9.99856 1.35179 9.99918 1.35135 10.0002 1.35097L12.6597 6.74253L12.8342 7.09623L13.2244 7.15295L19.1729 8.01745C19.173 8.01747 19.1731 8.01749 19.1732 8.01751C19.1734 8.01754 19.1736 8.01758 19.1738 8.01762L19.1736 8.019L19.173 8.01962ZM19.173 8.01962L19.1734 8.02031L19.1735 8.02011L19.173 8.01962ZM10.0009 1.35075C10.0011 1.35072 10.0012 1.35069 10.0013 1.35067C10.0016 1.3506 10.0018 1.35059 10.0018 1.35059C10.0018 1.35059 10.0017 1.35059 10.0016 1.35058C10.0015 1.35058 10.0014 1.35057 10.0013 1.35056C10.0009 1.35052 10.0006 1.35044 10.0003 1.35039C10.0002 1.35035 10.0001 1.35031 10.0001 1.35032C10.0001 1.35033 10.0001 1.35037 10.0003 1.35045L10.0009 1.35076M10.0009 1.35075L10.0009 1.35076M10.0009 1.35075C10.001 1.3508 10.0011 1.35084 10.0012 1.35088L10.0009 1.35076M10.0009 1.35075L10.0009 1.35076M0.821967 8.01806L0.822165 8.01803L0.822654 8.01851L0.821967 8.01806ZM9.99922 1.34893C9.99921 1.34892 9.99921 1.34892 9.99921 1.34891L9.99922 1.34893Z" stroke="#8435E5" stroke-width="1.5"/>
</svg>
