<svg width="24" height="24" viewBox="0 0 24 24" fill="none" xmlns="http://www.w3.org/2000/svg">
<path d="M20.987 24H3.00944C2.18235 24 1.4762 23.707 0.890993 23.1211C0.305787 22.5352 0.0131836 21.8281 0.0131836 21V3C0.0131836 2.17188 0.305787 1.46484 0.890993 0.878906C1.4762 0.292969 2.18235 0 3.00944 0H20.987C21.8141 0 22.5202 0.292969 23.1054 0.878906C23.6906 1.46484 23.9832 2.17188 23.9832 3V21C23.9832 21.8281 23.6906 22.5352 23.1054 23.1211C22.5202 23.707 21.8141 24 20.987 24ZM7.50382 17.25C7.50382 17.0469 7.42969 16.8711 7.28144 16.7227C7.13319 16.5742 6.95763 16.5 6.75476 16.5H5.25663C5.05376 16.5 4.8782 16.5742 4.72994 16.7227C4.58169 16.8711 4.50757 17.0469 4.50757 17.25V20.25C4.50757 20.4531 4.58169 20.6289 4.72994 20.7773C4.8782 20.9258 5.05376 21 5.25663 21H6.75476C6.95763 21 7.13319 20.9258 7.28144 20.7773C7.42969 20.6289 7.50382 20.4531 7.50382 20.25V17.25ZM13.4963 11.25C13.4963 11.0469 13.4222 10.8711 13.274 10.7227C13.1257 10.5742 12.9501 10.5 12.7473 10.5H11.2491C11.0463 10.5 10.8707 10.5742 10.7225 10.7227C10.5742 10.8711 10.5001 11.0469 10.5001 11.25V20.25C10.5001 20.4531 10.5742 20.6289 10.7225 20.7773C10.8707 20.9258 11.0463 21 11.2491 21H12.7473C12.9501 21 13.1257 20.9258 13.274 20.7773C13.4222 20.6289 13.4963 20.4531 13.4963 20.25V11.25ZM19.4888 3.75C19.4888 3.54688 19.4147 3.37109 19.2665 3.22266C19.1182 3.07422 18.9426 3 18.7398 3H17.2416C17.0388 3 16.8632 3.07422 16.715 3.22266C16.5667 3.37109 16.4926 3.54688 16.4926 3.75V20.25C16.4926 20.4531 16.5667 20.6289 16.715 20.7773C16.8632 20.9258 17.0388 21 17.2416 21H18.7398C18.9426 21 19.1182 20.9258 19.2665 20.7773C19.4147 20.6289 19.4888 20.4531 19.4888 20.25V3.75Z" fill="#8435E5"/>
</svg>
